<?xml version="1.0" standalone="no"?>
<!DOCTYPE svg PUBLIC "-//W3C//DTD SVG 20010904//EN"
 "http://www.w3.org/TR/2001/REC-SVG-20010904/DTD/svg10.dtd">
<svg version="1.0" xmlns="http://www.w3.org/2000/svg"
 width="500.000000pt" height="277.000000pt" viewBox="0 0 500.000000 277.000000"
 preserveAspectRatio="xMidYMid meet">
<g transform="translate(0.000000,277.000000) scale(0.100000,-0.100000)"
fill="#000000" stroke="none">
<path d="M3155 2758 c-27 -3 -65 -11 -83 -17 -18 -5 -65 -13 -105 -16 -40 -4
-79 -9 -87 -12 -29 -12 -56 -16 -145 -27 -42 -5 -153 -25 -199 -35 -30 -7 -53
-5 -100 9 -70 22 -196 28 -196 9 0 -4 -12 -9 -27 -12 -16 -3 -43 -20 -62 -37
-18 -17 -39 -29 -46 -26 -7 2 -17 0 -22 -5 -9 -9 -86 -21 -303 -50 -41 -5 -81
-12 -88 -14 -13 -5 -45 -9 -149 -20 -17 -2 -41 -8 -52 -15 -12 -6 -27 -10 -34
-9 -6 1 -35 1 -64 0 -43 -1 -51 -4 -46 -17 3 -9 8 -11 12 -6 3 6 33 9 66 7 33
-1 65 1 70 5 9 6 78 17 166 25 15 2 46 6 70 11 24 4 51 8 59 9 46 4 145 18
214 31 44 8 81 12 84 9 3 -3 -4 -14 -16 -25 -12 -12 -22 -25 -22 -30 0 -6 -5
-10 -11 -10 -6 0 -8 7 -5 16 6 15 4 15 -10 3 -10 -8 -12 -15 -5 -17 14 -5 14
-32 0 -32 -6 0 -9 -6 -6 -14 3 -8 2 -27 -2 -43 -5 -16 -2 -51 5 -83 7 -31 9
-59 4 -65 -5 -6 -4 -17 2 -25 8 -12 9 -12 4 3 -3 9 -1 17 4 17 9 0 14 -15 11
-33 -1 -4 8 -17 19 -29 10 -11 17 -25 14 -29 -2 -4 6 -15 18 -23 12 -9 18 -16
13 -16 -6 0 -2 -5 7 -11 9 -5 15 -16 12 -24 -4 -8 -10 -13 -14 -10 -5 3 -11 1
-15 -5 -3 -5 -18 -10 -33 -10 -15 0 -38 -7 -50 -16 -12 -8 -22 -12 -22 -8 0 3
-7 1 -15 -6 -12 -10 -18 -10 -32 1 -16 13 -17 12 -5 -3 11 -14 10 -18 -5 -26
-10 -6 -16 -12 -13 -14 3 -2 -4 -16 -16 -30 -17 -22 -24 -25 -35 -15 -11 10
-11 9 -1 -3 8 -12 8 -25 -3 -55 -15 -45 -18 -48 -100 -71 -33 -9 -78 -22 -100
-29 -22 -7 -79 -23 -127 -35 -81 -21 -87 -25 -102 -59 -11 -25 -17 -68 -18
-139 -1 -56 -5 -102 -10 -102 -5 0 -5 -8 1 -17 5 -11 8 -174 7 -388 -1 -204 2
-378 7 -388 4 -10 17 -27 27 -37 18 -18 37 -19 234 -19 l215 0 25 29 c24 29
24 35 20 129 -3 63 -1 102 6 106 6 4 7 12 3 18 -5 7 -9 52 -9 101 -2 79 0 89
17 93 11 3 19 10 19 15 0 5 -8 7 -19 3 -18 -5 -19 3 -17 215 0 121 -3 220 -8
220 -4 0 -6 9 -3 21 4 16 3 18 -9 8 -11 -9 -15 -8 -20 5 -3 9 -17 16 -29 16
-13 0 -27 5 -30 10 -4 6 -10 8 -15 5 -5 -3 -17 -2 -27 4 -42 21 -79 34 -92 32
-7 -1 -10 2 -6 8 4 7 -4 11 -20 11 -14 0 -33 4 -43 9 -45 24 -125 50 -135 44
-6 -4 -7 -1 -2 7 6 10 4 12 -9 7 -10 -4 -15 -3 -11 3 3 6 13 10 22 10 20 0
152 30 178 40 27 11 145 34 149 29 3 -2 6 -19 8 -38 4 -33 6 -35 104 -68 54
-19 108 -36 119 -38 11 -1 34 -8 50 -15 17 -7 37 -13 45 -14 8 -1 25 -7 38
-14 26 -15 59 -24 85 -24 9 1 17 -3 17 -9 0 -5 11 -9 24 -9 33 0 57 -10 50
-21 -3 -5 2 -17 11 -26 15 -15 16 -15 13 3 -2 15 2 18 20 17 13 -2 33 2 44 8
18 10 20 9 14 -7 -6 -17 -4 -17 11 2 28 32 72 47 92 32 14 -12 15 -11 2 5 -12
15 -11 17 3 17 11 0 14 5 10 12 -4 6 -3 8 4 4 6 -3 18 1 26 10 15 14 16 14 17
-3 0 -14 2 -15 6 -3 9 23 36 40 55 34 9 -3 26 4 37 15 12 12 25 21 31 21 5 0
26 11 46 25 20 14 41 22 47 18 5 -3 7 -1 3 5 -3 5 -2 12 2 14 5 1 15 30 23 63
15 59 9 145 -10 170 -5 5 -7 18 -6 28 2 9 -1 15 -6 11 -5 -3 -6 -11 -3 -17 3
-7 -4 0 -17 14 -13 14 -32 30 -43 36 -15 8 -8 11 37 16 30 3 63 10 73 16 11 5
39 15 64 20 54 12 302 70 455 106 61 14 145 32 188 40 44 8 82 17 86 19 4 3
27 7 52 10 60 7 79 15 79 33 0 11 -5 13 -17 8 -10 -4 -40 -12 -68 -17 -27 -5
-70 -14 -95 -19 -25 -5 -52 -11 -60 -12 -8 -2 -22 -6 -30 -9 -8 -4 -73 -19
-145 -33 -71 -15 -257 -58 -411 -96 -155 -38 -291 -69 -302 -69 -15 0 -20 6
-19 20 1 11 4 20 8 20 7 0 5 227 -2 252 -3 10 -8 21 -12 24 -4 4 -7 16 -7 26
0 11 -6 26 -12 33 -27 30 -33 41 -33 60 0 12 -12 28 -30 39 -16 10 -34 25 -38
33 -5 8 -20 18 -33 23 -32 13 -30 30 4 30 15 0 63 7 107 15 44 9 96 18 115 20
71 9 475 77 490 82 8 4 22 5 32 4 9 -1 19 3 23 9 7 12 -56 11 -150 -2z m-705
-130 c31 -14 78 -49 107 -79 107 -109 148 -238 124 -388 -7 -44 -11 -87 -8
-94 3 -9 27 -16 60 -20 66 -7 90 -20 115 -66 27 -49 32 -96 19 -161 l-12 -55
-115 -57 c-63 -31 -158 -77 -210 -102 l-95 -44 -275 90 c-151 49 -281 92 -289
94 -34 11 19 172 75 228 37 37 99 65 142 66 36 0 72 15 72 30 0 5 -20 40 -45
77 -46 68 -85 171 -85 222 0 43 28 112 65 163 87 119 225 157 355 96z m174
-114 c3 -8 2 -12 -4 -9 -6 3 -10 10 -10 16 0 14 7 11 14 -7z m-927 -899 c103
-36 195 -69 203 -74 13 -7 15 -69 18 -446 1 -315 -1 -442 -9 -451 -9 -11 -57
-14 -230 -14 -206 0 -219 1 -229 19 -14 27 -14 985 0 1012 6 11 21 19 35 19
13 0 108 -29 212 -65z m1028 55 c-3 -5 -11 -10 -16 -10 -6 0 -7 5 -4 10 3 6
11 10 16 10 6 0 7 -4 4 -10z"/>
<path d="M2257 2537 c-50 -30 -92 -83 -108 -135 -21 -71 8 -139 128 -298 32
-42 72 -96 89 -120 17 -25 34 -47 36 -50 12 -11 131 126 160 185 40 80 49 173
23 250 -19 60 -91 143 -146 171 -54 28 -133 26 -182 -3z m191 -30 c23 -15 42
-32 42 -38 0 -5 5 -7 10 -4 6 3 10 1 10 -4 0 -6 8 -20 17 -31 21 -24 57 -114
43 -105 -5 3 -10 2 -10 -4 0 -5 4 -12 9 -16 8 -5 8 -33 -1 -122 -1 -7 -5 -13
-10 -13 -4 0 -8 -7 -8 -15 0 -8 -5 -15 -12 -15 -6 0 -8 -3 -5 -6 9 -10 -12
-46 -23 -39 -6 3 -7 0 -4 -8 7 -18 -22 -48 -40 -41 -7 3 -19 -3 -27 -13 -13
-17 -13 -17 4 -4 12 10 21 11 28 4 7 -7 -1 -17 -26 -33 -36 -22 -52 -19 -77
15 -11 14 -10 27 1 20 5 -3 12 -2 15 3 2 4 -5 9 -17 9 -11 1 -24 9 -29 17 -5
8 -15 21 -23 29 -8 8 -12 17 -9 19 2 3 -7 13 -21 22 -14 9 -25 23 -25 31 0 8
-5 15 -11 15 -5 0 -7 5 -3 11 5 8 8 8 14 0 5 -9 10 -8 18 2 10 12 8 14 -13 12
-17 -2 -32 6 -50 27 -28 33 -35 61 -7 31 9 -10 13 -12 7 -3 -5 8 -16 21 -24
27 -24 21 -24 111 0 150 11 18 25 33 30 33 6 0 8 4 5 9 -3 4 14 19 38 32 62
34 129 33 184 -4z"/>
<path d="M2250 2432 c0 -7 -4 -11 -8 -8 -4 2 -8 -7 -7 -21 0 -17 6 -27 17 -29
10 -1 30 -11 46 -23 16 -11 33 -17 38 -13 4 4 2 -1 -5 -11 -12 -15 -12 -17 2
-11 21 8 40 -5 29 -19 -9 -13 -32 -87 -32 -106 0 -22 37 -11 60 18 18 25 25
28 40 18 17 -10 45 -55 42 -67 0 -3 7 -6 17 -7 27 -2 48 43 33 67 -7 11 -12
26 -12 34 0 8 -11 27 -24 43 -16 18 -22 34 -16 42 4 7 6 30 3 50 -2 20 -5 41
-5 47 -1 6 -16 10 -34 10 -18 0 -30 -4 -28 -7 6 -10 -24 -19 -43 -13 -17 5
-17 5 0 -6 9 -6 21 -9 25 -6 5 3 9 -1 9 -8 0 -11 -7 -11 -34 2 -28 13 -32 18
-20 27 10 7 0 10 -39 11 -39 0 -54 -4 -54 -14z m82 -31 c25 -16 49 -34 52 -40
13 -20 24 -11 33 26 4 20 15 39 22 41 11 4 13 -7 8 -53 -5 -47 -2 -63 12 -84
19 -27 51 -97 51 -112 0 -21 -17 -5 -50 46 -19 30 -37 55 -40 55 -3 -1 -17
-19 -32 -40 -15 -22 -33 -40 -39 -40 -6 0 -9 3 -7 8 2 4 14 29 28 55 l24 48
-29 24 c-17 13 -47 31 -67 41 -36 16 -46 32 -31 47 10 11 16 9 65 -22z"/>
<path d="M2200 2419 c0 -5 5 -7 10 -4 6 3 10 8 10 11 0 2 -4 4 -10 4 -5 0 -10
-5 -10 -11z"/>
<path d="M2490 2391 c0 -6 4 -13 10 -16 6 -3 7 1 4 9 -7 18 -14 21 -14 7z"/>
<path d="M2334 2298 c-11 -18 -12 -48 -2 -42 5 4 7 12 4 19 -2 7 1 18 7 24 6
6 8 11 5 11 -4 0 -10 -6 -14 -12z"/>
<path d="M2493 2125 c0 -8 4 -12 9 -9 5 3 6 10 3 15 -9 13 -12 11 -12 -6z"/>
<path d="M2406 2037 c3 -10 9 -15 12 -12 3 3 0 11 -7 18 -10 9 -11 8 -5 -6z"/>
<path d="M2520 2526 c0 -2 8 -10 18 -17 15 -13 16 -12 3 4 -13 16 -21 21 -21
13z"/>
<path d="M2275 1968 c-2 -7 -15 -50 -30 -96 -35 -109 -27 -128 13 -27 40 104
47 135 33 135 -6 0 -13 -6 -16 -12z"/>
<path d="M2515 1924 c15 -97 29 -160 36 -168 12 -13 10 20 -4 118 -7 48 -17
81 -25 84 -10 3 -12 -5 -7 -34z"/>
<path d="M1940 1909 c0 -5 5 -7 10 -4 6 3 10 8 10 11 0 2 -4 4 -10 4 -5 0 -10
-5 -10 -11z"/>
<path d="M2340 1911 c0 -6 4 -13 10 -16 6 -3 7 1 4 9 -7 18 -14 21 -14 7z"/>
<path d="M1597 1422 c-15 -16 -17 -53 -17 -311 0 -182 4 -300 10 -312 9 -16
22 -19 88 -19 47 0 83 5 90 12 9 9 12 88 12 293 0 319 6 294 -87 333 -63 27
-75 27 -96 4z m80 -24 c7 -1 10 -6 6 -11 -3 -5 4 -6 17 -2 15 5 20 4 16 -4 -5
-7 -1 -9 8 -5 11 4 16 0 16 -10 0 -9 3 -16 8 -16 9 0 8 -483 -2 -498 -4 -7 -2
-12 3 -12 6 0 2 -9 -8 -19 -15 -15 -32 -19 -70 -18 -27 0 -48 4 -45 9 3 4 -3
8 -13 8 -15 0 -16 2 -3 10 8 5 11 10 5 10 -10 0 -10 531 0 559 4 9 13 11 28 6
12 -3 27 -7 34 -7z"/>
<path d="M1685 1360 c3 -5 8 -10 11 -10 2 0 4 5 4 10 0 6 -5 10 -11 10 -5 0
-7 -4 -4 -10z"/>
<path d="M2365 2730 c-3 -5 -1 -10 4 -10 6 0 11 5 11 10 0 6 -2 10 -4 10 -3 0
-8 -4 -11 -10z"/>
<path d="M1058 2723 c6 -2 18 -2 25 0 6 3 1 5 -13 5 -14 0 -19 -2 -12 -5z"/>
<path d="M2515 2680 c3 -5 8 -10 11 -10 2 0 4 5 4 10 0 6 -5 10 -11 10 -5 0
-7 -4 -4 -10z"/>
<path d="M4831 2539 c-18 -6 -31 -12 -29 -14 5 -5 78 14 78 20 0 6 -8 5 -49
-6z"/>
<path d="M4769 2525 c-3 -2 -23 -7 -45 -11 -53 -8 -56 -14 -6 -14 45 0 72 8
72 21 0 10 -13 12 -21 4z"/>
<path d="M4640 2495 c-7 -9 -10 -18 -6 -22 3 -3 6 -1 6 5 0 6 8 12 18 14 11 2
13 6 6 11 -7 4 -17 0 -24 -8z"/>
<path d="M4535 2480 c-3 -5 1 -10 10 -10 9 0 13 5 10 10 -3 6 -8 10 -10 10 -2
0 -7 -4 -10 -10z"/>
<path d="M4574 2478 c-10 -15 1 -19 26 -10 l24 9 -22 5 c-12 4 -25 2 -28 -4z"/>
<path d="M1272 2465 c-19 -10 -20 -14 -8 -18 9 -4 16 -2 16 3 0 5 9 7 21 5 17
-4 19 -2 9 10 -7 8 -13 15 -14 14 0 -1 -11 -7 -24 -14z"/>
<path d="M966 2455 c-3 -9 0 -15 9 -15 8 0 15 7 15 15 0 8 -4 15 -9 15 -5 0
-11 -7 -15 -15z"/>
<path d="M4490 2460 c0 -5 5 -10 10 -10 6 0 10 5 10 10 0 6 -4 10 -10 10 -5 0
-10 -4 -10 -10z"/>
<path d="M1030 2450 c-9 -6 -10 -10 -3 -10 6 0 15 5 18 10 8 12 4 12 -15 0z"/>
<path d="M1133 2453 c9 -2 23 -2 30 0 6 3 -1 5 -18 5 -16 0 -22 -2 -12 -5z"/>
<path d="M1205 2450 c3 -5 14 -10 23 -10 15 0 15 2 2 10 -20 13 -33 13 -25 0z"/>
<path d="M4425 2450 c-3 -5 3 -10 14 -10 12 0 21 5 21 10 0 6 -6 10 -14 10 -8
0 -18 -4 -21 -10z"/>
<path d="M805 2439 c-4 -6 -13 -8 -21 -5 -7 3 -16 1 -19 -4 -10 -16 32 -11 45
5 7 8 10 15 7 15 -3 0 -9 -5 -12 -11z"/>
<path d="M4372 2443 c-18 -2 -30 -9 -27 -14 9 -13 28 -11 51 6 10 8 17 14 14
13 -3 -1 -20 -3 -38 -5z"/>
<path d="M4270 2421 c-19 -12 -128 -33 -158 -32 -13 0 -32 -4 -43 -10 -11 -5
-32 -12 -47 -14 -15 -3 -49 -10 -77 -16 -27 -6 -59 -12 -69 -13 -11 -2 -22 -8
-24 -15 -5 -15 56 -8 126 15 23 8 56 14 72 14 17 0 30 5 30 10 0 6 12 10 28
10 29 0 170 28 184 36 10 6 11 24 1 24 -5 0 -15 -5 -23 -9z"/>
<path d="M4317 2415 c3 -8 9 -12 14 -9 12 7 11 11 -5 17 -10 4 -13 1 -9 -8z"/>
<path d="M520 2390 c8 -5 22 -10 30 -10 13 0 13 1 0 10 -8 5 -22 10 -30 10
-13 0 -13 -1 0 -10z"/>
<path d="M3158 2243 c7 -3 16 -2 19 1 4 3 -2 6 -13 5 -11 0 -14 -3 -6 -6z"/>
<path d="M3197 2229 c7 -7 15 -10 18 -7 3 3 -2 9 -12 12 -14 6 -15 5 -6 -5z"/>
<path d="M3058 2213 c7 -3 16 -2 19 1 4 3 -2 6 -13 5 -11 0 -14 -3 -6 -6z"/>
<path d="M2726 2104 c-5 -14 -4 -15 9 -4 17 14 19 20 6 20 -5 0 -12 -7 -15
-16z"/>
<path d="M323 2044 c4 -4 0 -15 -9 -25 -13 -15 -16 -45 -18 -163 0 -93 -5
-142 -11 -138 -5 3 -5 -1 2 -9 16 -20 16 -492 -1 -482 -7 4 -6 1 2 -9 9 -12
11 -60 7 -199 -2 -101 -5 -188 -6 -194 0 -5 1 -47 3 -93 6 -122 -5 -117 251
-118 117 -1 206 0 199 3 -10 4 -9 10 4 25 15 15 19 40 20 126 1 59 3 112 4
117 6 28 -2 56 -25 83 -18 22 -22 32 -13 36 7 4 4 5 -8 2 -11 -2 -29 3 -38 10
-20 14 -44 8 -64 -15 -9 -10 -11 -11 -6 -2 5 9 3 12 -5 7 -6 -4 -9 -12 -6 -17
4 -5 3 -14 -1 -21 -4 -6 -8 -45 -8 -87 l-1 -76 -48 -3 c-32 -2 -47 1 -42 7 3
6 0 8 -9 5 -8 -3 -16 2 -20 13 -9 32 -5 607 5 625 7 12 6 18 -1 18 -7 0 -10
56 -10 174 l2 174 46 -17 c26 -10 52 -16 59 -14 6 2 15 -1 19 -8 4 -8 3 -9 -4
-5 -7 4 -12 2 -12 -3 0 -6 5 -11 11 -11 8 0 10 -18 7 -55 -3 -31 -1 -50 3 -43
6 9 9 7 9 -8 0 -11 6 -26 13 -33 10 -10 9 -11 -5 -6 -10 4 -18 4 -18 1 0 -4
12 -11 26 -16 15 -6 22 -14 18 -22 -4 -7 -3 -8 4 -4 6 4 8 14 5 23 -6 15 -5
16 9 3 9 -8 14 -18 12 -21 -2 -3 9 -4 24 -2 15 2 32 5 39 5 6 1 8 8 5 17 -5
14 -4 14 13 1 17 -14 18 -14 6 8 -6 12 -8 22 -3 22 5 0 6 14 4 31 -3 20 0 34
9 40 8 5 9 9 3 9 -7 0 -12 30 -13 83 -2 119 -1 115 -42 134 -21 9 -36 19 -34
22 1 3 -7 7 -18 7 -48 3 -89 12 -100 23 -6 6 -20 11 -32 11 -11 0 -33 7 -48
15 -15 8 -35 11 -44 8 -11 -4 -14 -3 -9 5 4 8 2 10 -8 6 -8 -3 -26 2 -40 11
-20 14 -26 14 -26 4 0 -9 -3 -10 -8 -4 -4 6 -14 12 -22 13 -8 2 -12 0 -7 -4z
m210 -80 c100 -31 188 -60 195 -66 8 -7 12 -49 12 -143 0 -157 -7 -172 -66
-140 -46 25 -56 45 -53 111 3 66 -5 75 -86 97 -49 14 -62 14 -72 4 -11 -10
-13 -119 -13 -522 0 -280 4 -513 8 -517 5 -5 42 -8 83 -6 l74 3 3 91 c4 128
31 150 105 86 15 -13 17 -34 17 -153 0 -75 -3 -144 -6 -153 -5 -14 -33 -16
-204 -16 -171 0 -199 2 -204 16 -3 9 -6 314 -6 678 0 640 2 686 28 686 2 0 85
-25 185 -56z"/>
<path d="M3975 2031 c-23 -14 -33 -16 -44 -7 -11 8 -13 8 -7 -2 5 -8 -2 -14
-23 -18 -16 -4 -32 -13 -35 -20 -5 -13 -9 -12 -30 1 -23 15 -27 15 -63 -4 -21
-11 -33 -20 -28 -21 9 -1 -51 -30 -62 -30 -2 0 -1 5 3 12 4 7 3 8 -5 4 -6 -4
-9 -11 -6 -16 6 -10 -51 -24 -65 -15 -5 3 -10 2 -10 -3 0 -9 -47 -24 -80 -26
-8 -1 -16 -7 -16 -14 -3 -25 -5 -27 -14 -12 -8 14 -18 -560 -12 -765 1 -44 2
-87 1 -95 -1 -8 -2 -85 -3 -170 -1 -85 -5 -161 -10 -169 -7 -11 -5 -13 10 -7
10 4 16 4 12 1 -3 -4 0 -14 8 -24 11 -12 29 -16 69 -16 30 1 55 -3 55 -7 0 -5
6 -3 14 4 8 7 12 16 10 20 -3 4 3 11 12 16 15 8 17 27 17 128 -1 66 3 122 8
125 6 3 4 16 -4 31 -9 18 -11 44 -7 82 3 31 2 62 -3 71 -11 20 -1 35 23 35 10
0 21 4 25 10 3 5 12 7 20 3 8 -3 15 1 15 8 0 7 3 10 6 6 3 -3 31 3 61 14 29
12 60 18 68 15 12 -4 14 -42 15 -203 1 -109 1 -223 1 -253 -1 -78 25 -107 96
-106 28 1 49 5 45 10 -3 5 2 6 12 3 10 -4 15 -3 11 3 -3 6 -2 10 3 10 11 0 12
11 12 123 1 48 5 87 9 87 5 0 11 9 14 20 4 14 10 18 23 13 9 -3 15 -2 12 3 -5
10 38 55 46 47 2 -3 28 18 57 46 29 28 57 47 62 44 6 -4 8 0 4 10 -3 10 -3 17
2 17 4 0 20 11 35 25 15 14 31 23 36 20 4 -3 7 6 5 20 -1 17 4 29 17 36 10 5
16 15 12 22 -3 7 4 1 15 -13 11 -14 21 -31 21 -39 0 -8 12 -29 26 -48 14 -19
23 -41 20 -49 -3 -8 -2 -13 2 -10 4 2 15 -9 25 -25 9 -17 12 -27 7 -24 -19 12
-10 -12 15 -39 15 -16 22 -32 18 -43 -4 -10 -2 -14 4 -10 7 5 9 -1 5 -15 -4
-16 -2 -19 8 -13 10 6 12 4 7 -9 -4 -9 -3 -15 1 -12 4 3 14 -16 22 -42 7 -26
24 -68 37 -94 13 -26 24 -59 25 -73 1 -14 6 -25 11 -25 4 0 2 -10 -4 -22 -10
-20 -10 -21 2 -12 8 6 28 10 46 9 23 -2 32 1 32 14 1 9 3 39 5 66 2 29 -1 56
-7 64 -9 11 -9 15 1 18 6 3 12 9 12 14 0 6 -5 7 -12 3 -7 -5 -9 0 -6 14 3 12
1 23 -6 26 -7 3 -6 8 4 15 10 7 11 11 3 11 -7 0 -13 11 -13 25 0 14 -4 33 -9
43 -23 43 -47 142 -37 152 7 7 5 10 -7 10 -11 0 -14 5 -10 17 5 12 3 14 -8 8
-11 -7 -11 -5 1 10 8 10 10 16 3 12 -16 -10 -47 48 -40 74 3 11 1 16 -5 13 -5
-3 -12 3 -15 15 -3 11 -10 18 -16 14 -6 -4 -8 0 -4 10 4 11 1 17 -8 17 -7 0
-17 5 -21 12 -5 7 -3 8 7 3 8 -5 7 0 -3 12 -10 11 -18 24 -18 29 0 6 -5 15
-12 22 -15 15 -20 44 -5 35 6 -4 8 0 4 10 -3 9 3 28 16 43 12 16 15 24 7 19
-12 -7 -12 -4 1 11 9 10 19 32 23 47 5 22 11 27 24 22 13 -5 14 -3 6 5 -9 9
-9 18 2 38 7 14 11 29 8 34 -3 5 0 15 6 23 7 8 9 15 5 15 -4 0 -2 7 5 15 7 8
10 15 7 15 -4 0 1 19 9 42 8 23 12 48 10 55 -3 7 -2 13 3 13 16 0 4 73 -15 87
-11 8 -18 19 -16 24 1 6 -3 7 -9 3 -6 -3 -15 -1 -19 6 -5 9 -18 7 -50 -9 -33
-16 -41 -17 -36 -5 3 9 2 12 -5 9 -5 -4 -8 -12 -6 -18 2 -7 -2 -34 -9 -61 -7
-27 -11 -53 -8 -58 3 -4 1 -8 -3 -8 -5 0 -9 -8 -10 -17 -3 -41 -33 -127 -48
-136 -10 -5 -14 -15 -9 -29 4 -14 2 -18 -5 -14 -7 4 -11 -1 -11 -13 0 -12 -5
-21 -11 -21 -5 0 -8 4 -5 8 3 5 -17 31 -44 58 -27 26 -46 52 -44 56 3 4 -7 10
-21 14 -14 3 -24 9 -21 11 5 6 -40 52 -104 105 -25 21 -36 35 -25 31 11 -3 17
-3 13 1 -3 4 -13 9 -22 10 -24 3 -57 38 -48 50 11 14 9 146 -1 164 -5 6 -6 16
-3 20 2 4 0 14 -6 22 -8 12 -9 11 -4 -4 7 -20 7 -20 -15 0 -14 12 -19 13 -14
4 6 -12 5 -13 -6 -2 -16 15 -17 15 -54 -7z m67 -23 c11 -9 17 -36 20 -90 3
-43 3 -78 1 -78 -2 0 -27 19 -56 43 -28 23 -69 53 -91 66 l-38 24 68 22 c85
28 77 27 96 13z m-154 -82 c111 -71 260 -196 374 -314 59 -61 114 -122 124
-136 9 -14 20 -26 24 -26 18 0 102 235 115 324 9 55 39 82 80 72 39 -10 50
-44 36 -114 -18 -93 -67 -234 -111 -322 l-40 -80 34 -50 c106 -155 182 -356
207 -552 12 -91 5 -168 -12 -151 -6 6 -32 68 -59 139 -26 71 -66 170 -89 219
-45 97 -143 274 -151 275 -3 0 -26 -28 -50 -62 -25 -33 -80 -92 -124 -131 -74
-65 -219 -167 -237 -167 -19 0 -7 28 32 75 23 28 58 70 78 94 20 25 50 61 67
80 17 20 59 78 94 129 l62 93 -38 57 c-81 118 -306 325 -481 443 -67 45 -73
53 -73 84 0 24 7 39 22 49 32 23 40 21 116 -28z m-112 -113 c24 -15 44 -30 44
-33 0 -3 -33 -15 -72 -28 -40 -12 -79 -26 -87 -31 -21 -13 -19 -377 2 -398 13
-13 29 -10 133 24 l119 38 3 163 c2 110 -1 161 -8 157 -6 -4 -10 -65 -10 -158
0 -102 -4 -147 -10 -137 -5 8 -10 12 -10 8 0 -5 -1 -11 -2 -15 -2 -9 -60 -31
-102 -38 -15 -3 -41 -12 -57 -20 -36 -19 -56 -2 -53 46 6 73 6 288 0 297 -6
11 70 42 106 44 13 1 31 8 40 16 9 8 21 11 27 8 5 -4 13 -1 17 5 4 8 3 9 -4 5
-7 -4 -12 -2 -12 3 0 13 3 13 24 5 9 -3 13 -10 10 -15 -3 -5 0 -9 6 -9 6 0 8
-5 4 -12 -4 -7 -3 -8 5 -4 6 4 25 -7 44 -26 17 -18 54 -52 80 -75 l48 -42 -1
-293 c0 -214 -4 -297 -13 -309 -6 -9 -27 -35 -44 -59 -37 -48 -41 -71 -17 -95
16 -16 29 -16 64 -1 13 5 15 -7 13 -85 -1 -63 -6 -95 -15 -100 -7 -5 -34 -9
-60 -9 -37 0 -50 4 -58 19 -6 12 -10 118 -10 274 0 211 -2 257 -15 267 -11 9
-36 5 -122 -24 -59 -20 -114 -40 -121 -45 -11 -7 -14 -55 -13 -234 2 -259 2
-257 -79 -257 -39 0 -52 4 -60 19 -12 23 -14 1159 -2 1178 4 7 50 27 102 45
l95 33 13 -37 c9 -26 27 -46 58 -65z m370 -285 c18 -18 35 -43 38 -55 5 -15
12 -20 23 -16 13 5 15 2 10 -11 -4 -10 -3 -15 3 -11 6 3 15 3 21 -1 8 -4 7 -9
-2 -15 -11 -7 -10 -9 3 -9 19 0 42 -35 33 -50 -4 -6 1 -7 11 -3 15 6 15 4 -1
-23 -13 -23 -14 -25 -1 -10 9 11 16 14 16 7 0 -7 5 -9 13 -5 6 4 3 -2 -7 -14
-11 -12 -15 -22 -11 -22 4 0 0 -9 -10 -20 -10 -11 -21 -18 -25 -15 -4 2 -7 -2
-7 -9 0 -19 -43 -86 -55 -86 -6 0 -8 -7 -5 -14 4 -11 1 -13 -10 -9 -11 4 -14
2 -9 -5 7 -12 -20 -45 -47 -55 -9 -3 -17 -12 -17 -19 0 -9 3 -8 10 2 5 8 10
10 10 4 0 -13 -21 -34 -35 -34 -8 0 -11 81 -11 274 0 304 -3 293 62 224z m-56
-662 c0 -2 -7 -7 -16 -10 -8 -3 -12 -2 -9 4 6 10 25 14 25 6z"/>
<path d="M3986 1763 c-6 -14 -5 -15 5 -6 7 7 10 15 7 18 -3 3 -9 -2 -12 -12z"/>
<path d="M4055 1711 c-3 -5 -2 -12 3 -15 5 -3 9 1 9 9 0 17 -3 19 -12 6z"/>
<path d="M4223 1545 c0 -8 4 -12 9 -9 5 3 6 10 3 15 -9 13 -12 11 -12 -6z"/>
<path d="M3676 1373 c-6 -14 -5 -15 5 -6 7 7 10 15 7 18 -3 3 -9 -2 -12 -12z"/>
<path d="M4176 1441 c4 -15 2 -21 -4 -17 -6 3 -13 2 -16 -3 -4 -5 1 -8 9 -7
23 3 28 13 15 33 -10 16 -10 15 -4 -6z"/>
<path d="M3847 2029 c7 -7 15 -10 18 -7 3 3 -2 9 -12 12 -14 6 -15 5 -6 -5z"/>
<path d="M826 1877 c3 -10 9 -15 12 -12 3 3 0 11 -7 18 -10 9 -11 8 -5 -6z"/>
<path d="M857 1884 c-3 -3 -3 -12 -1 -19 3 -7 -2 -15 -10 -18 -12 -5 -15 -28
-14 -124 1 -186 6 -169 -52 -177 -27 -4 -52 -11 -55 -16 -6 -9 60 -4 75 5 3 2
11 0 18 -4 13 -8 15 -112 13 -541 -2 -312 1 -375 19 -378 74 -12 130 -13 130
-2 0 6 5 8 12 4 6 -4 8 -3 5 3 -4 6 0 16 8 23 8 7 13 16 10 20 -3 5 -1 11 5
15 6 4 7 12 3 18 -4 7 -8 100 -9 207 0 107 1 189 4 181 4 -11 6 -11 13 0 8 12
10 12 18 0 5 -7 13 -11 18 -8 5 3 29 -5 53 -17 l44 -22 -3 -50 c-2 -27 -4
-112 -5 -189 -1 -135 0 -141 23 -167 20 -23 32 -28 72 -28 26 0 51 5 54 10 4
6 10 8 15 5 4 -3 14 3 21 12 12 15 12 16 -5 10 -16 -6 -17 -5 -6 8 8 10 13 48
14 104 1 49 4 93 9 97 4 4 7 12 7 18 0 6 -5 4 -10 -4 -6 -10 -10 124 -10 388
0 228 4 402 9 402 5 0 8 8 7 17 0 10 8 19 19 21 40 9 66 22 60 32 -4 6 -13 7
-23 1 -28 -15 -77 -17 -78 -3 -1 6 -3 15 -4 20 -1 4 -2 10 -1 15 0 4 -2 6 -6
6 -20 -3 -25 2 -14 15 9 10 7 17 -6 27 -16 12 -17 12 -6 -2 7 -9 10 -19 6 -22
-9 -9 -25 -9 -20 1 3 4 -15 7 -40 6 -33 0 -49 -6 -59 -20 -7 -10 -17 -23 -21
-28 -5 -5 -7 -27 -4 -49 2 -27 0 -37 -7 -33 -10 6 -49 -10 -62 -25 -3 -3 -22
-9 -42 -12 l-37 -6 -3 112 -3 112 -40 19 c-22 11 -54 19 -72 19 -18 -1 -30 3
-27 8 6 10 0 12 -9 3z m103 -48 l25 -11 2 -254 c2 -193 5 -257 15 -267 7 -7
43 -24 80 -38 59 -21 69 -22 87 -10 19 14 20 25 20 244 0 127 4 238 9 247 7
12 18 15 48 10 69 -11 65 22 65 -571 1 -405 -2 -540 -11 -551 -15 -18 -81 -20
-98 -3 -9 9 -12 69 -12 208 0 142 -3 200 -12 212 -7 8 -44 27 -82 41 -109 42
-106 49 -106 -215 0 -192 -2 -224 -17 -240 -18 -20 -64 -24 -94 -8 -18 10 -19
28 -19 610 0 560 1 600 18 609 18 11 39 7 82 -13z m183 -212 c13 -5 16 -32 16
-155 1 -83 -2 -148 -7 -145 -5 3 -9 -1 -9 -8 0 -8 6 -12 14 -9 9 4 11 0 7 -11
-3 -9 -10 -13 -15 -10 -5 3 -9 0 -9 -6 0 -6 -5 -8 -12 -3 -7 4 -22 9 -33 10
-11 2 -34 14 -52 26 l-33 22 2 128 2 128 30 7 c17 3 34 5 39 4 4 -1 7 2 7 7 0
5 8 12 18 14 9 3 18 5 19 6 1 0 8 -2 16 -5z"/>
<path d="M960 1880 c-13 -8 -12 -10 3 -10 9 0 17 5 17 10 0 12 -1 12 -20 0z"/>
<path d="M3312 1798 c-23 -5 -40 -13 -37 -19 3 -5 -1 -6 -9 -3 -9 3 -16 1 -16
-6 0 -6 -4 -8 -10 -5 -5 3 -10 1 -10 -5 0 -7 -7 -10 -15 -6 -8 3 -15 1 -15 -4
0 -6 -8 -10 -19 -10 -10 0 -24 -7 -31 -15 -7 -9 -15 -13 -18 -11 -2 3 -14 -1
-26 -9 -11 -8 -28 -15 -38 -15 -10 0 -18 -4 -18 -9 0 -5 -16 -15 -35 -21 -19
-6 -35 -16 -35 -20 0 -5 -6 -7 -13 -4 -8 3 -20 -2 -27 -10 -7 -9 -15 -14 -19
-11 -4 2 -22 -9 -39 -25 -19 -17 -39 -27 -47 -24 -8 4 -15 1 -15 -6 0 -6 -4
-8 -10 -5 -5 3 -10 1 -10 -4 0 -6 7 -11 15 -11 8 0 15 6 15 13 0 9 2 9 9 -1 4
-7 9 -167 9 -355 2 -261 -1 -343 -10 -349 -10 -6 -10 -10 0 -20 7 -7 12 -42
12 -94 0 -74 3 -86 25 -109 22 -25 29 -26 77 -21 75 8 77 8 71 22 -2 6 0 15 6
19 6 3 11 37 11 76 0 59 3 69 18 69 16 1 16 1 0 11 -15 8 -18 25 -18 105 0
100 11 140 36 130 10 -4 12 -2 8 6 -5 8 -2 9 10 5 9 -4 15 -3 12 2 -9 14 23
34 57 35 22 1 31 5 29 15 -3 12 0 12 13 1 8 -7 18 -10 22 -6 3 3 1 6 -5 6 -6
0 -9 6 -6 14 3 8 11 13 19 10 7 -3 19 1 26 8 20 18 91 54 102 50 5 -1 5 3 1 9
-4 8 1 9 17 4 19 -5 21 -4 9 4 -14 10 -7 15 13 12 5 -1 6 3 2 9 -3 5 0 12 7
15 10 4 13 56 12 248 -1 146 2 247 8 254 11 13 1 36 -12 28 -4 -3 -13 2 -21
11 -21 26 -42 31 -87 22z m74 -29 c4 -8 8 -444 4 -532 0 -4 -77 -45 -170 -91
-94 -46 -177 -89 -185 -96 -12 -10 -15 -48 -15 -206 0 -188 -1 -193 -22 -208
-30 -21 -84 -20 -106 2 -17 17 -18 47 -16 467 1 248 2 454 3 458 1 7 62 38
271 133 41 19 98 46 125 59 54 26 100 32 111 14z"/>
<path d="M3026 1601 c-3 -4 6 -8 20 -9 13 -1 24 0 24 2 0 7 -40 14 -44 7z"/>
<path d="M3113 1535 l-93 -44 0 -119 c0 -103 2 -121 19 -136 17 -16 23 -14
115 29 l96 45 0 124 c0 114 -2 126 -19 136 -24 12 -8 17 -118 -35z m104 8 c-4
-3 -1 -13 6 -21 10 -13 9 -15 -4 -10 -9 4 -16 1 -16 -7 0 -7 6 -11 12 -9 9 4
11 -17 8 -78 -5 -109 -4 -104 -20 -106 -7 -1 -20 -3 -28 -4 -8 -1 -15 -5 -15
-10 0 -4 -7 -8 -15 -8 -8 0 -15 -4 -15 -8 0 -4 -16 -14 -36 -21 -49 -18 -52
-10 -52 111 l0 98 50 26 c28 14 59 23 70 21 14 -4 18 -1 14 8 -3 9 4 15 17 18
12 2 24 5 26 6 2 0 1 -2 -2 -6z"/>
<path d="M2886 1639 c4 -6 0 -15 -7 -20 -8 -5 -9 -9 -3 -9 6 0 17 6 23 14 9
11 8 15 -4 20 -10 4 -14 2 -9 -5z"/>
<path d="M2680 1621 c0 -5 5 -13 10 -16 6 -3 10 -2 10 4 0 5 -4 13 -10 16 -5
3 -10 2 -10 -4z"/>
<path d="M2172 1603 c11 -3 15 -10 11 -21 -6 -14 -5 -15 9 -2 17 16 6 31 -22
29 -11 -1 -11 -2 2 -6z"/>
<path d="M2621 1577 c-11 -14 -6 -27 10 -27 5 0 6 6 3 14 -3 8 2 16 13 19 14
4 15 5 2 6 -9 0 -22 -5 -28 -12z"/>
<path d="M2505 1540 c-3 -5 -1 -10 4 -10 6 0 11 5 11 10 0 6 -2 10 -4 10 -3 0
-8 -4 -11 -10z"/>
<path d="M2570 1540 c-8 -5 -12 -12 -9 -15 4 -3 12 1 19 10 14 17 11 19 -10 5z"/>
<path d="M2708 1543 c-10 -2 -18 -11 -18 -19 0 -12 4 -12 25 2 36 23 34 28 -7
17z"/>
<path d="M2770 1539 c0 -5 5 -7 10 -4 6 3 10 8 10 11 0 2 -4 4 -10 4 -5 0 -10
-5 -10 -11z"/>
<path d="M2632 1518 c-15 -15 -15 -28 -1 -28 11 0 39 24 39 34 0 11 -26 6 -38
-6z"/>
<path d="M640 1510 c0 -13 40 -13 60 0 11 7 5 10 -22 10 -21 0 -38 -4 -38 -10z"/>
<path d="M2450 1510 c-8 -5 -10 -10 -5 -10 6 0 17 5 25 10 8 5 11 10 5 10 -5
0 -17 -5 -25 -10z"/>
<path d="M2580 1500 c0 -5 -7 -7 -15 -4 -8 4 -15 2 -15 -4 0 -6 -13 -13 -30
-17 -30 -7 -47 -21 -36 -32 8 -8 76 26 76 39 0 7 5 6 15 -2 8 -6 20 -10 27 -7
8 3 5 6 -6 6 -20 1 -20 1 0 16 17 13 17 14 2 15 -10 0 -18 -4 -18 -10z"/>
<path d="M580 1491 c0 -6 10 -8 21 -6 33 6 36 15 6 15 -15 0 -27 -4 -27 -9z"/>
<path d="M4635 1489 c-4 -6 -4 -13 -1 -16 3 -4 6 -1 6 5 0 6 8 13 18 15 15 4
15 5 0 6 -9 0 -20 -4 -23 -10z"/>
<path d="M510 1475 c0 -8 4 -15 8 -15 5 0 9 7 9 15 0 8 -4 15 -9 15 -4 0 -8
-7 -8 -15z"/>
<path d="M2060 1478 c0 -5 7 -7 15 -4 14 5 13 1 -2 -24 -9 -17 -20 -30 -23
-30 -3 0 -3 -51 1 -112 5 -102 3 -116 -15 -145 -12 -18 -30 -36 -41 -42 -19
-9 -19 -10 4 -10 13 -1 30 7 37 16 10 15 13 6 16 -60 2 -55 -1 -82 -9 -89 -15
-12 -17 -32 -3 -23 6 4 10 -43 10 -134 0 -76 3 -147 6 -156 4 -8 20 -23 36
-31 l30 -16 -31 -25 c-38 -32 -68 -75 -46 -67 8 3 17 14 20 25 4 11 11 16 17
13 7 -4 8 -2 4 4 -4 7 -2 12 4 12 6 0 22 12 35 26 14 15 25 22 25 15 0 -6 10
-3 22 9 12 11 25 20 30 20 4 0 17 9 28 20 11 11 27 20 35 20 8 0 15 5 15 10 0
6 6 10 14 10 7 0 19 7 26 15 7 8 16 12 21 9 5 -3 17 0 26 5 15 9 13 10 -12 11
-16 0 -45 -9 -63 -20 -18 -11 -36 -20 -40 -20 -5 0 -9 54 -9 120 0 102 2 120
16 123 14 4 14 5 -1 6 -32 2 -19 21 15 22 l32 1 -30 7 c-23 5 -29 11 -28 31 1
52 3 60 19 60 8 0 13 4 9 9 -3 6 11 13 32 17 49 9 103 32 103 43 0 8 -18 4
-95 -25 -11 -4 -23 -8 -27 -8 -3 -1 -10 -4 -14 -9 -4 -4 -13 -7 -20 -7 -9 0
-11 12 -7 43 3 23 6 50 7 60 0 20 -1 20 31 5 14 -6 24 -17 21 -23 -6 -17 10
-40 18 -26 4 6 1 11 -6 11 -10 0 -9 3 1 9 9 6 22 6 32 0 10 -5 33 -9 53 -9 19
0 36 -5 38 -10 4 -13 51 -22 58 -11 9 15 55 18 52 4 -1 -7 2 -13 7 -13 10 0
15 -268 5 -293 -3 -9 -10 -15 -14 -12 -13 8 -70 -16 -70 -30 0 -11 5 -11 28 1
53 27 62 20 57 -42 -5 -65 6 -89 53 -111 20 -10 29 -19 22 -23 -6 -4 10 -6 35
-6 25 1 45 4 45 8 0 4 7 4 17 1 11 -4 14 -3 9 5 -4 7 -2 12 5 12 7 0 9 3 6 7
-4 3 1 12 11 20 9 8 11 12 5 8 -10 -5 -13 12 -13 69 0 44 4 76 10 76 6 0 10 7
10 15 0 8 -4 15 -10 15 -14 0 -13 545 2 573 10 19 9 20 -4 10 -12 -11 -18 -9
-33 7 -10 11 -15 23 -12 27 4 3 7 2 7 -4 0 -6 8 -14 17 -17 15 -6 15 -4 -2 14
-11 12 -22 17 -29 12 -6 -5 -37 -14 -68 -21 -31 -7 -67 -20 -80 -31 -13 -10
-35 -20 -48 -21 -14 -2 -29 -9 -35 -15 -16 -18 -75 -34 -101 -28 -20 5 -21 8
-9 20 16 16 29 19 20 4 -11 -18 4 -11 25 12 11 12 20 17 20 12 0 -5 8 -10 18
-10 14 0 17 6 13 31 -3 16 -6 23 -8 15 -2 -8 -29 -25 -61 -38 -76 -30 -77 -30
-74 -7 2 15 1 17 -7 6 -5 -9 -16 -11 -27 -7 -11 4 -20 6 -20 4 -1 -2 -10 4
-20 13 -11 9 -43 22 -71 30 -56 14 -59 17 -23 24 36 7 35 14 -2 10 -18 -2 -35
-4 -38 -5 -3 -1 -9 -1 -15 0 -38 8 -45 8 -45 -2z m205 -88 l141 -59 129 55
c141 60 179 72 189 56 4 -6 6 -183 6 -393 0 -303 -2 -386 -13 -396 -10 -11
-21 -10 -57 4 -75 28 -71 9 -70 291 1 304 5 296 -91 263 -81 -27 -106 -27
-176 4 -103 46 -97 62 -103 -255 l-5 -275 -48 -23 c-37 -18 -52 -20 -67 -12
-19 10 -20 22 -20 399 0 213 3 391 7 394 13 14 41 6 178 -53z m275 -190 c-13
-8 -13 -10 2 -10 9 0 19 5 21 10 3 6 4 5 3 -2 -1 -7 -16 -15 -32 -16 -16 -2
-35 -9 -42 -14 -9 -8 -16 -8 -23 0 -5 7 -6 10 -3 8 3 -3 20 4 37 15 32 19 66
27 37 9z"/>
<path d="M2287 1483 c-4 -3 -7 -11 -7 -17 0 -6 5 -5 12 2 6 6 9 14 7 17 -3 3
-9 2 -12 -2z"/>
<path d="M4760 1449 c0 -6 9 -13 20 -16 11 -3 20 -10 20 -16 0 -6 3 -7 7 -4 3
4 -3 16 -15 27 -24 23 -32 25 -32 9z"/>
<path d="M2791 1264 c0 -11 3 -14 6 -6 3 7 2 16 -1 19 -3 4 -6 -2 -5 -13z"/>
<path d="M2025 1210 c-3 -5 -1 -10 4 -10 6 0 11 5 11 10 0 6 -2 10 -4 10 -3 0
-8 -4 -11 -10z"/>
<path d="M2811 1201 c-10 -6 -10 -10 -1 -16 13 -8 24 -1 19 14 -3 6 -10 7 -18
2z"/>
<path d="M2277 1193 c-4 -3 -7 -11 -7 -17 0 -6 5 -5 12 2 6 6 9 14 7 17 -3 3
-9 2 -12 -2z"/>
<path d="M2770 1175 c0 -8 4 -15 10 -15 5 0 7 7 4 15 -4 8 -8 15 -10 15 -2 0
-4 -7 -4 -15z"/>
<path d="M4405 1129 c-4 -6 -5 -12 -2 -15 2 -3 7 2 10 11 7 17 1 20 -8 4z"/>
<path d="M4424 1119 c-3 -6 -2 -15 3 -20 5 -5 9 -1 9 11 0 23 -2 24 -12 9z"/>
<path d="M2333 1060 c-1 -11 0 -20 2 -20 2 0 9 9 15 20 8 15 8 20 -3 20 -7 0
-13 -9 -14 -20z"/>
<path d="M1960 1044 c0 -8 5 -12 10 -9 6 4 8 11 5 16 -9 14 -15 11 -15 -7z"/>
<path d="M1110 1040 c8 -5 20 -10 25 -10 6 0 3 5 -5 10 -8 5 -19 10 -25 10 -5
0 -3 -5 5 -10z"/>
<path d="M2350 1020 c0 -5 5 -10 10 -10 6 0 10 5 10 10 0 6 -4 10 -10 10 -5 0
-10 -4 -10 -10z"/>
<path d="M750 991 c0 -5 5 -13 10 -16 6 -3 10 -2 10 4 0 5 -4 13 -10 16 -5 3
-10 2 -10 -4z"/>
<path d="M2350 979 c0 -5 5 -7 10 -4 6 3 10 8 10 11 0 2 -4 4 -10 4 -5 0 -10
-5 -10 -11z"/>
<path d="M2000 935 c-10 -12 -10 -15 4 -15 9 0 16 7 16 15 0 8 -2 15 -4 15 -2
0 -9 -7 -16 -15z"/>
<path d="M1955 900 c3 -5 10 -10 16 -10 5 0 9 5 9 10 0 6 -7 10 -16 10 -8 0
-12 -4 -9 -10z"/>
<path d="M3701 894 c0 -11 3 -14 6 -6 3 7 2 16 -1 19 -3 4 -6 -2 -5 -13z"/>
<path d="M2791 844 c0 -11 3 -14 6 -6 3 7 2 16 -1 19 -3 4 -6 -2 -5 -13z"/>
<path d="M2423 788 c-26 -13 -30 -28 -8 -28 8 0 15 5 15 10 0 6 6 10 14 10 8
0 18 5 21 10 8 13 -14 12 -42 -2z"/>
<path d="M3755 740 c-3 -5 -1 -10 4 -10 6 0 11 5 11 10 0 6 -2 10 -4 10 -3 0
-8 -4 -11 -10z"/>
<path d="M4598 713 c7 -3 16 -2 19 1 4 3 -2 6 -13 5 -11 0 -14 -3 -6 -6z"/>
<path d="M3456 623 c-6 -14 -5 -15 5 -6 7 7 10 15 7 18 -3 3 -9 -2 -12 -12z"/>
<path d="M3806 614 c-5 -14 -4 -15 9 -4 17 14 19 20 6 20 -5 0 -12 -7 -15 -16z"/>
<path d="M3876 572 c-3 -6 -1 -14 5 -17 15 -10 25 3 12 16 -7 7 -13 7 -17 1z"/>
<path d="M1990 510 c0 -5 5 -10 11 -10 5 0 7 5 4 10 -3 6 -8 10 -11 10 -2 0
-4 -4 -4 -10z"/>
<path d="M1950 480 c-8 -5 -11 -12 -7 -16 4 -4 15 0 24 9 18 18 8 23 -17 7z"/>
<path d="M3170 466 c0 -2 9 -6 20 -9 11 -3 18 -1 14 4 -5 9 -34 13 -34 5z"/>
<path d="M2880 450 c0 -6 7 -10 15 -10 8 0 15 2 15 4 0 2 -7 6 -15 10 -8 3
-15 1 -15 -4z"/>
<path d="M2938 453 c7 -3 16 -2 19 1 4 3 -2 6 -13 5 -11 0 -14 -3 -6 -6z"/>
<path d="M2998 453 c12 -2 32 -2 45 0 12 2 2 4 -23 4 -25 0 -35 -2 -22 -4z"/>
<path d="M3105 450 c3 -5 8 -10 11 -10 2 0 4 5 4 10 0 6 -5 10 -11 10 -5 0 -7
-4 -4 -10z"/>
<path d="M3158 443 c7 -3 16 -2 19 1 4 3 -2 6 -13 5 -11 0 -14 -3 -6 -6z"/>
<path d="M1874 426 c-10 -8 -15 -18 -11 -22 4 -4 15 0 24 9 22 21 12 31 -13
13z"/>
<path d="M2815 430 c-3 -5 3 -10 14 -10 12 0 21 5 21 10 0 6 -6 10 -14 10 -8
0 -18 -4 -21 -10z"/>
<path d="M2718 425 c-2 -3 -30 -6 -61 -6 -32 -1 -57 -5 -57 -10 0 -13 134 -3
138 10 4 11 -10 15 -20 6z"/>
<path d="M2750 420 c0 -5 4 -10 9 -10 6 0 13 5 16 10 3 6 -1 10 -9 10 -9 0
-16 -4 -16 -10z"/>
<path d="M3610 416 c0 -8 14 -18 32 -22 18 -3 42 -13 54 -21 16 -10 24 -11 29
-3 9 15 -15 42 -32 36 -7 -3 -13 -1 -13 4 0 5 -7 7 -15 4 -8 -4 -15 -1 -15 5
0 6 -9 11 -20 11 -11 0 -20 -6 -20 -14z"/>
<path d="M362 394 c-12 -8 -19 -20 -16 -26 5 -7 2 -9 -7 -6 -10 4 -15 -1 -15
-12 0 -10 4 -16 9 -13 5 3 8 -25 5 -65 -2 -39 -2 -69 0 -67 6 5 31 -19 27 -26
-2 -3 22 -5 55 -5 32 1 56 4 54 7 -2 4 3 9 11 13 17 6 20 42 5 51 -6 4 -8 16
-5 26 4 11 2 26 -4 33 -8 10 -7 17 4 26 20 16 19 27 -3 55 -12 15 -23 21 -32
15 -7 -5 -24 -4 -37 1 -30 11 -25 12 -51 -7z m115 -36 c-2 -8 -20 -12 -46 -12
-37 2 -41 0 -41 -22 0 -21 4 -24 41 -24 28 0 39 -4 36 -12 -2 -8 -18 -12 -41
-10 -33 3 -36 1 -36 -23 0 -23 3 -25 45 -25 31 0 45 -4 45 -14 0 -10 -15 -13
-57 -12 l-58 2 -3 82 -3 82 61 0 c45 0 60 -3 57 -12z"/>
<path d="M2541 400 c-14 -3 -27 -12 -29 -19 -3 -10 0 -12 13 -8 9 4 28 10 41
13 13 3 24 9 24 13 0 9 -16 9 -49 1z"/>
<path d="M1023 393 c-18 -7 -16 -43 4 -65 12 -13 14 -21 6 -29 -6 -6 -9 -17
-6 -25 2 -7 -2 -23 -10 -35 -12 -17 -13 -25 -4 -40 14 -23 53 -25 61 -4 11 29
41 16 38 -16 -1 -3 12 -3 29 -1 29 4 41 22 14 22 -8 0 -25 16 -38 35 l-24 36
-21 -36 c-12 -19 -28 -35 -37 -35 -18 0 -15 7 22 57 l24 33 -26 37 c-31 46
-13 60 23 17 17 -21 25 -25 29 -15 6 16 32 41 59 58 17 11 16 12 -13 12 -23 1
-33 -4 -33 -14 0 -9 -6 -12 -17 -8 -12 5 -14 3 -9 -8 4 -8 -1 -4 -10 9 -16 21
-35 26 -61 15z"/>
<path d="M1718 390 c-10 -6 -15 -19 -13 -31 3 -12 0 -29 -5 -39 -5 -10 -6 -20
-3 -24 13 -13 10 -51 -6 -64 -9 -8 -10 -11 -3 -7 7 4 12 0 12 -9 0 -8 6 -17
13 -19 9 -4 9 -8 -1 -15 -10 -6 -5 -9 16 -8 17 1 28 4 26 8 -2 4 4 13 14 20
11 7 18 21 16 31 -1 9 2 15 6 12 5 -3 11 -1 15 5 4 6 11 7 17 4 7 -4 8 -2 4 4
-4 7 -1 12 8 12 19 0 31 56 16 75 -6 8 -9 22 -6 32 5 16 -1 18 -52 20 -31 1
-65 -2 -74 -7z m100 -32 c16 -16 15 -63 -1 -77 -8 -6 -24 -12 -38 -14 -19 -3
-24 -10 -24 -32 -1 -16 -6 -30 -13 -33 -9 -3 -12 19 -12 82 l0 86 38 0 c21 0
43 -5 50 -12z"/>
<path d="M1757 343 c-4 -3 -7 -17 -7 -30 0 -27 30 -32 50 -8 20 24 -21 61 -43
38z"/>
<path d="M2390 385 c0 -9 -6 -18 -13 -21 -16 -6 -11 -162 6 -178 14 -13 49
-17 41 -5 -3 5 2 12 10 15 9 3 13 11 9 18 -3 6 3 2 14 -9 11 -11 19 -22 18
-25 -2 -3 10 -5 27 -6 16 -1 25 2 18 6 -8 5 -7 10 4 19 18 15 17 54 -1 47 -7
-3 -13 1 -13 9 0 8 5 15 12 15 6 0 8 3 5 6 -3 4 -2 15 4 25 6 13 6 19 -1 19
-13 0 -13 27 0 33 6 3 5 4 -2 3 -7 -1 -20 6 -28 17 -21 25 -110 35 -110 12z
m94 -31 c19 -18 21 -55 5 -71 -9 -9 -6 -21 9 -47 29 -49 1 -50 -30 -1 -30 45
-48 45 -48 -1 0 -24 -4 -34 -12 -32 -9 3 -13 31 -14 86 l-2 82 38 0 c22 0 45
-7 54 -16z"/>
<path d="M2427 344 c-4 -4 -7 -18 -7 -31 0 -20 5 -24 23 -21 16 2 22 10 22 28
0 24 -23 39 -38 24z"/>
<path d="M3068 392 c-21 -4 -19 4 -24 -98 -3 -71 -1 -84 16 -99 11 -10 26 -15
35 -11 9 3 14 2 11 -3 -3 -5 1 -12 10 -15 8 -3 12 -2 9 4 -4 6 8 10 27 10 21
0 40 7 50 20 16 18 16 20 -8 39 -24 19 -24 20 -5 33 19 14 20 15 2 28 -18 12
-18 14 -1 32 16 18 17 57 1 59 -21 3 -109 4 -123 1z m112 -38 c0 -14 -7 -16
-40 -11 -37 5 -40 3 -40 -19 0 -21 4 -24 41 -24 28 0 39 -4 36 -12 -2 -8 -18
-12 -40 -10 -34 3 -37 1 -37 -22 0 -24 3 -26 46 -26 70 0 52 -24 -19 -26 l-57
-1 0 84 0 83 55 0 c44 0 55 -3 55 -16z"/>
<path d="M3760 382 c-21 -10 -30 -22 -30 -39 0 -16 -4 -22 -12 -18 -7 4 -4 -1
6 -9 11 -9 16 -16 11 -16 -4 0 3 -10 16 -22 15 -13 18 -19 7 -15 -12 4 -20 -2
-30 -23 -8 -20 -16 -26 -24 -19 -7 6 -20 6 -35 -1 l-24 -10 26 2 c14 2 32 -2
40 -8 19 -16 149 -44 149 -33 0 5 -7 9 -16 9 -12 0 -9 8 10 33 14 19 23 37 19
41 -4 4 0 4 10 0 25 -9 21 1 -13 36 -29 30 -39 47 -21 36 14 -9 22 23 11 44
-13 24 -63 30 -100 12z m90 -27 c0 -13 -7 -15 -35 -9 -30 5 -35 4 -35 -13 0
-12 12 -25 33 -34 43 -19 49 -60 13 -84 -19 -13 -32 -15 -53 -8 -44 15 -40 32
9 30 48 -2 60 19 22 38 -77 38 -72 95 8 95 28 0 38 -4 38 -15z"/>
<path d="M4418 383 c-10 -2 -19 -12 -20 -21 -4 -47 -2 -68 10 -77 10 -8 8 -15
-9 -34 l-23 -24 28 -23 c52 -45 126 -21 130 42 0 13 5 24 9 24 5 0 1 7 -7 16
-9 8 -16 19 -16 24 0 5 -8 7 -17 4 -10 -3 -6 2 9 12 25 16 25 19 11 41 -15 23
-56 29 -105 16z m92 -28 c0 -11 -9 -14 -31 -13 -42 4 -48 -17 -10 -37 82 -42
43 -128 -43 -95 -36 13 -26 25 22 25 48 0 56 27 13 45 -45 18 -56 36 -43 65
10 21 19 25 52 25 29 0 40 -4 40 -15z"/>
<path d="M1142 335 l-32 -45 32 -45 c34 -48 43 -53 52 -30 7 19 -3 45 -16 45
-6 0 -5 -6 2 -15 7 -8 8 -15 3 -15 -12 0 -32 43 -29 63 1 8 8 22 15 31 7 9 10
16 5 16 -4 0 -3 5 4 12 14 14 16 28 4 28 -5 0 -22 -20 -40 -45z"/>
<path d="M2345 291 c-3 -5 -1 -12 5 -16 5 -3 10 1 10 9 0 18 -6 21 -15 7z"/>
<path d="M2276 245 c-14 -13 -26 -21 -26 -18 0 4 -9 -2 -19 -13 -10 -10 -32
-29 -48 -41 -58 -45 -86 -73 -80 -80 4 -4 21 8 38 25 17 18 36 32 42 32 5 0
18 10 28 22 11 11 19 18 19 14 0 -4 15 9 34 28 18 20 38 36 45 36 6 0 11 5 11
10 0 17 -16 11 -44 -15z"/>
<path d="M3533 238 c-2 -5 12 -9 31 -9 78 -3 96 -1 96 9 0 10 -120 9 -127 0z"/>
<path d="M3910 243 c0 -5 -10 -15 -22 -21 -13 -6 -18 -11 -12 -11 16 -1 50 27
41 35 -4 4 -7 3 -7 -3z"/>
<path d="M1800 231 c0 -6 4 -12 8 -15 5 -3 9 1 9 9 0 8 -4 15 -9 15 -4 0 -8
-4 -8 -9z"/>
<path d="M3097 147 c-3 -7 3 -13 14 -13 13 0 15 3 7 13 -6 7 -12 13 -13 13 -2
0 -5 -6 -8 -13z"/>
<path d="M3516 132 c-2 -4 7 -9 22 -10 21 -1 24 0 12 8 -18 12 -27 12 -34 2z"/>
<path d="M3585 130 c4 -6 11 -8 16 -5 14 9 11 15 -7 15 -8 0 -12 -5 -9 -10z"/>
<path d="M2940 100 c0 -5 5 -10 10 -10 6 0 10 5 10 10 0 6 -4 10 -10 10 -5 0
-10 -4 -10 -10z"/>
<path d="M3620 100 c0 -5 6 -10 14 -10 8 0 18 5 21 10 3 6 -3 10 -14 10 -12 0
-21 -4 -21 -10z"/>
<path d="M2049 63 c-25 -21 -44 -28 -76 -28 -24 0 -43 4 -43 10 0 6 -3 5 -8
-1 -9 -15 -122 -17 -122 -3 0 6 -5 7 -12 2 -7 -4 -409 -9 -893 -10 -1025 -3
-895 -1 -895 -13 0 -7 840 -10 2500 -10 1993 0 2500 3 2500 13 0 9 -127 12
-610 10 -340 -1 -609 1 -607 6 1 5 -9 18 -22 30 -25 22 -71 29 -71 11 0 -5 7
-10 15 -10 9 0 25 -9 37 -20 21 -20 21 -20 -438 -17 -370 2 -458 5 -456 15 2
9 -7 12 -30 8 -64 -10 -134 -15 -272 -22 -127 -6 -139 -6 -133 9 4 10 2 17 -3
17 -6 0 -10 -7 -10 -15 0 -12 -27 -14 -167 -13 -93 0 -171 2 -175 5 -4 2 -2
10 5 17 6 8 15 12 20 9 4 -2 7 3 7 11 0 21 -3 20 -41 -11z"/>
<path d="M2884 71 c3 -5 15 -7 26 -4 28 7 25 13 -6 13 -14 0 -23 -4 -20 -9z"/>
</g>
</svg>
